function data()
return { 
		subMeshes = {
			{ 
				indices = { 
					normal = { 
						count = 156684,
						offset = 666504,
					},
					position = { 
						count = 156684,
						offset = 353136,
					},
					tangent = { 
						count = 156684,
						offset = 823188,
					},
					uv0 = { 
						count = 156684,
						offset = 509820,
					},
				},
			},
		},
		vertexAttr = { 
			normal = { 
				count = 49356,
				numComp = 3,
				offset = 169108,
			},
			position = { 
				count = 82860,
				numComp = 3,
				offset = 0,
			},
			tangent = { 
				count = 134672,
				numComp = 4,
				offset = 218464,
			},
			uv0 = { 
				count = 86248,
				numComp = 2,
				offset = 82860,
			},
		},
	}
end