function data()
return { 
		subMeshes = {
			{ 
				indices = { 
					normal = { 
						count = 105264,
						offset = 497120,
					},
					position = { 
						count = 105264,
						offset = 286592,
					},
					tangent = { 
						count = 105264,
						offset = 602384,
					},
					uv0 = { 
						count = 105264,
						offset = 391856,
					},
				},
			},
		},
		vertexAttr = { 
			normal = { 
				count = 27984,
				numComp = 3,
				offset = 136688,
			},
			position = { 
				count = 55824,
				numComp = 3,
				offset = 0,
			},
			tangent = { 
				count = 121920,
				numComp = 4,
				offset = 164672,
			},
			uv0 = { 
				count = 80864,
				numComp = 2,
				offset = 55824,
			},
		},
	}
end