function data()
return { 
		subMeshes = {
			{ 
				indices = { 
					normal = { 
						count = 24372,
						offset = 120812,
					},
					position = { 
						count = 24372,
						offset = 72068,
					},
					tangent = { 
						count = 24372,
						offset = 145184,
					},
					uv0 = { 
						count = 24372,
						offset = 96440,
					},
				},
			},
		},
		vertexAttr = { 
			normal = { 
				count = 10128,
				numComp = 3,
				offset = 35316,
			},
			position = { 
				count = 15012,
				numComp = 3,
				offset = 0,
			},
			tangent = { 
				count = 26624,
				numComp = 4,
				offset = 45444,
			},
			uv0 = { 
				count = 20304,
				numComp = 2,
				offset = 15012,
			},
		},
	}
end