function data()
return { 
		subMeshes = {
			{ 
				indices = { 
					normal = { 
						count = 62184,
						offset = 304000,
					},
					position = { 
						count = 62184,
						offset = 179632,
					},
					tangent = { 
						count = 62184,
						offset = 366184,
					},
					uv0 = { 
						count = 62184,
						offset = 241816,
					},
				},
			},
		},
		vertexAttr = { 
			normal = { 
				count = 15192,
				numComp = 3,
				offset = 82584,
			},
			position = { 
				count = 34008,
				numComp = 3,
				offset = 0,
			},
			tangent = { 
				count = 81856,
				numComp = 4,
				offset = 97776,
			},
			uv0 = { 
				count = 48576,
				numComp = 2,
				offset = 34008,
			},
		},
	}
end