function data()
return { 
		subMeshes = {
			{ 
				indices = { 
					normal = { 
						count = 86568,
						offset = 380700,
					},
					position = { 
						count = 86568,
						offset = 207564,
					},
					tangent = { 
						count = 86568,
						offset = 467268,
					},
					uv0 = { 
						count = 86568,
						offset = 294132,
					},
				},
			},
		},
		vertexAttr = { 
			normal = { 
				count = 50088,
				numComp = 3,
				offset = 79684,
			},
			position = { 
				count = 43716,
				numComp = 3,
				offset = 0,
			},
			tangent = { 
				count = 77792,
				numComp = 4,
				offset = 129772,
			},
			uv0 = { 
				count = 35968,
				numComp = 2,
				offset = 43716,
			},
		},
	}
end