function data()
return { 
		subMeshes = {
			{ 
				indices = { 
					normal = { 
						count = 30180,
						offset = 143004,
					},
					position = { 
						count = 30180,
						offset = 82644,
					},
					tangent = { 
						count = 30180,
						offset = 173184,
					},
					uv0 = { 
						count = 30180,
						offset = 112824,
					},
				},
			},
		},
		vertexAttr = { 
			normal = { 
				count = 22596,
				numComp = 3,
				offset = 30800,
			},
			position = { 
				count = 17856,
				numComp = 3,
				offset = 0,
			},
			tangent = { 
				count = 29248,
				numComp = 4,
				offset = 53396,
			},
			uv0 = { 
				count = 12944,
				numComp = 2,
				offset = 17856,
			},
		},
	}
end