function data()
return { 
		subMeshes = {
			{ 
				indices = { 
					normal = { 
						count = 46728,
						offset = 253616,
					},
					position = { 
						count = 46728,
						offset = 160160,
					},
					tangent = { 
						count = 46728,
						offset = 300344,
					},
					uv0 = { 
						count = 46728,
						offset = 206888,
					},
				},
			},
		},
		vertexAttr = { 
			normal = { 
				count = 21492,
				numComp = 3,
				offset = 88892,
			},
			position = { 
				count = 58356,
				numComp = 3,
				offset = 0,
			},
			tangent = { 
				count = 49776,
				numComp = 4,
				offset = 110384,
			},
			uv0 = { 
				count = 30536,
				numComp = 2,
				offset = 58356,
			},
		},
	}
end