function data()
return { 
		subMeshes = {
			{ 
				indices = { 
					normal = { 
						count = 64968,
						offset = 334992,
					},
					position = { 
						count = 64968,
						offset = 205056,
					},
					tangent = { 
						count = 64968,
						offset = 399960,
					},
					uv0 = { 
						count = 64968,
						offset = 270024,
					},
				},
			},
		},
		vertexAttr = { 
			normal = { 
				count = 34860,
				numComp = 3,
				offset = 103588,
			},
			position = { 
				count = 65364,
				numComp = 3,
				offset = 0,
			},
			tangent = { 
				count = 66608,
				numComp = 4,
				offset = 138448,
			},
			uv0 = { 
				count = 38224,
				numComp = 2,
				offset = 65364,
			},
		},
	}
end