function data()
return { 
		subMeshes = {
			{ 
				indices = { 
					normal = { 
						count = 201624,
						offset = 891476,
					},
					position = { 
						count = 201624,
						offset = 488228,
					},
					tangent = { 
						count = 201624,
						offset = 1093100,
					},
					uv0 = { 
						count = 201624,
						offset = 689852,
					},
				},
			},
		},
		vertexAttr = { 
			normal = { 
				count = 81144,
				numComp = 3,
				offset = 227068,
			},
			position = { 
				count = 125028,
				numComp = 3,
				offset = 0,
			},
			tangent = { 
				count = 180016,
				numComp = 4,
				offset = 308212,
			},
			uv0 = { 
				count = 102040,
				numComp = 2,
				offset = 125028,
			},
		},
	}
end