function data()
return { 
		subMeshes = {
			{ 
				indices = { 
					normal = { 
						count = 242232,
						offset = 687116,
					},
					position = { 
						count = 242232,
						offset = 202652,
					},
					tangent = { 
						count = 242232,
						offset = 929348,
					},
					uv0 = { 
						count = 242232,
						offset = 444884,
					},
				},
			},
		},
		vertexAttr = { 
			normal = { 
				count = 4248,
				numComp = 3,
				offset = 144148,
			},
			position = { 
				count = 132780,
				numComp = 3,
				offset = 0,
			},
			tangent = { 
				count = 54256,
				numComp = 4,
				offset = 148396,
			},
			uv0 = { 
				count = 11368,
				numComp = 2,
				offset = 132780,
			},
		},
	}
end