function data()
return { 
		subMeshes = {
			{ 
				indices = { 
					normal = { 
						count = 23904,
						offset = 134996,
					},
					position = { 
						count = 23904,
						offset = 87188,
					},
					tangent = { 
						count = 23904,
						offset = 158900,
					},
					uv0 = { 
						count = 23904,
						offset = 111092,
					},
				},
			},
		},
		vertexAttr = { 
			normal = { 
				count = 14076,
				numComp = 3,
				offset = 37336,
			},
			position = { 
				count = 24816,
				numComp = 3,
				offset = 0,
			},
			tangent = { 
				count = 35776,
				numComp = 4,
				offset = 51412,
			},
			uv0 = { 
				count = 12520,
				numComp = 2,
				offset = 24816,
			},
		},
	}
end