function data()
return { 
		subMeshes = {
			{ 
				indices = { 
					normal = { 
						count = 39840,
						offset = 198924,
					},
					position = { 
						count = 39840,
						offset = 119244,
					},
					tangent = { 
						count = 39840,
						offset = 238764,
					},
					uv0 = { 
						count = 39840,
						offset = 159084,
					},
				},
			},
		},
		vertexAttr = { 
			normal = { 
				count = 21876,
				numComp = 3,
				offset = 51368,
			},
			position = { 
				count = 33480,
				numComp = 3,
				offset = 0,
			},
			tangent = { 
				count = 46000,
				numComp = 4,
				offset = 73244,
			},
			uv0 = { 
				count = 17888,
				numComp = 2,
				offset = 33480,
			},
		},
	}
end