function data()
return { 
		subMeshes = {
			{ 
				indices = { 
					normal = { 
						count = 4488,
						offset = 24400,
					},
					position = { 
						count = 4488,
						offset = 15424,
					},
					tangent = { 
						count = 4488,
						offset = 28888,
					},
					uv0 = { 
						count = 4488,
						offset = 19912,
					},
				},
			},
			{ 
				indices = { 
					normal = { 
						count = 312,
						offset = 34000,
					},
					position = { 
						count = 312,
						offset = 33376,
					},
					tangent = { 
						count = 312,
						offset = 34312,
					},
					uv0 = { 
						count = 312,
						offset = 33688,
					},
				},
			},
		},
		vertexAttr = { 
			normal = { 
				count = 3648,
				numComp = 3,
				offset = 5984,
			},
			position = { 
				count = 2592,
				numComp = 3,
				offset = 0,
			},
			tangent = { 
				count = 5792,
				numComp = 4,
				offset = 9632,
			},
			uv0 = { 
				count = 3392,
				numComp = 2,
				offset = 2592,
			},
		},
	}
end