function data()
return { 
		subMeshes = {
			{ 
				indices = { 
					normal = { 
						count = 18744,
						offset = 71084,
					},
					position = { 
						count = 18744,
						offset = 33596,
					},
					tangent = { 
						count = 18744,
						offset = 89828,
					},
					uv0 = { 
						count = 18744,
						offset = 52340,
					},
				},
			},
		},
		vertexAttr = { 
			normal = { 
				count = 5304,
				numComp = 3,
				offset = 15492,
			},
			position = { 
				count = 9396,
				numComp = 3,
				offset = 0,
			},
			tangent = { 
				count = 12800,
				numComp = 4,
				offset = 20796,
			},
			uv0 = { 
				count = 6096,
				numComp = 2,
				offset = 9396,
			},
		},
	}
end