function data()
return { 
		subMeshes = {
			{ 
				indices = { 
					normal = { 
						count = 12084,
						offset = 75148,
					},
					position = { 
						count = 12084,
						offset = 50980,
					},
					tangent = { 
						count = 12084,
						offset = 87232,
					},
					uv0 = { 
						count = 12084,
						offset = 63064,
					},
				},
			},
		},
		vertexAttr = { 
			normal = { 
				count = 6204,
				numComp = 3,
				offset = 23832,
			},
			position = { 
				count = 10848,
				numComp = 3,
				offset = 0,
			},
			tangent = { 
				count = 20944,
				numComp = 4,
				offset = 30036,
			},
			uv0 = { 
				count = 12984,
				numComp = 2,
				offset = 10848,
			},
		},
	}
end