function data()
return { 
		subMeshes = {
			{ 
				indices = { 
					normal = { 
						count = 11916,
						offset = 54648,
					},
					position = { 
						count = 11916,
						offset = 30816,
					},
					tangent = { 
						count = 11916,
						offset = 66564,
					},
					uv0 = { 
						count = 11916,
						offset = 42732,
					},
				},
			},
		},
		vertexAttr = { 
			normal = { 
				count = 6216,
				numComp = 3,
				offset = 13016,
			},
			position = { 
				count = 7176,
				numComp = 3,
				offset = 0,
			},
			tangent = { 
				count = 11584,
				numComp = 4,
				offset = 19232,
			},
			uv0 = { 
				count = 5840,
				numComp = 2,
				offset = 7176,
			},
		},
	}
end