function data()
return { 
		subMeshes = {
			{ 
				indices = { 
					normal = { 
						count = 62184,
						offset = 305068,
					},
					position = { 
						count = 62184,
						offset = 180700,
					},
					tangent = { 
						count = 62184,
						offset = 367252,
					},
					uv0 = { 
						count = 62184,
						offset = 242884,
					},
				},
			},
		},
		vertexAttr = { 
			normal = { 
				count = 15540,
				numComp = 3,
				offset = 82584,
			},
			position = { 
				count = 34008,
				numComp = 3,
				offset = 0,
			},
			tangent = { 
				count = 82576,
				numComp = 4,
				offset = 98124,
			},
			uv0 = { 
				count = 48576,
				numComp = 2,
				offset = 34008,
			},
		},
	}
end