function data()
return { 
		subMeshes = {
			{ 
				indices = { 
					normal = { 
						count = 124368,
						offset = 543152,
					},
					position = { 
						count = 124368,
						offset = 294416,
					},
					tangent = { 
						count = 124368,
						offset = 667520,
					},
					uv0 = { 
						count = 124368,
						offset = 418784,
					},
				},
			},
		},
		vertexAttr = { 
			normal = { 
				count = 25200,
				numComp = 3,
				offset = 116592,
			},
			position = { 
				count = 68016,
				numComp = 3,
				offset = 0,
			},
			tangent = { 
				count = 152624,
				numComp = 4,
				offset = 141792,
			},
			uv0 = { 
				count = 48576,
				numComp = 2,
				offset = 68016,
			},
		},
	}
end