function data()
return { 
		subMeshes = {
			{ 
				indices = { 
					normal = { 
						count = 124368,
						offset = 542936,
					},
					position = { 
						count = 124368,
						offset = 294200,
					},
					tangent = { 
						count = 124368,
						offset = 667304,
					},
					uv0 = { 
						count = 124368,
						offset = 418568,
					},
				},
			},
		},
		vertexAttr = { 
			normal = { 
				count = 25032,
				numComp = 3,
				offset = 116592,
			},
			position = { 
				count = 68016,
				numComp = 3,
				offset = 0,
			},
			tangent = { 
				count = 152576,
				numComp = 4,
				offset = 141624,
			},
			uv0 = { 
				count = 48576,
				numComp = 2,
				offset = 68016,
			},
		},
	}
end