function data()
return { 
		subMeshes = {
			{ 
				indices = { 
					normal = { 
						count = 62184,
						offset = 299476,
					},
					position = { 
						count = 62184,
						offset = 175108,
					},
					tangent = { 
						count = 62184,
						offset = 361660,
					},
					uv0 = { 
						count = 62184,
						offset = 237292,
					},
				},
			},
		},
		vertexAttr = { 
			normal = { 
				count = 14412,
				numComp = 3,
				offset = 82584,
			},
			position = { 
				count = 34008,
				numComp = 3,
				offset = 0,
			},
			tangent = { 
				count = 78112,
				numComp = 4,
				offset = 96996,
			},
			uv0 = { 
				count = 48576,
				numComp = 2,
				offset = 34008,
			},
		},
	}
end