function data()
return { 
		subMeshes = {
			{ 
				indices = { 
					normal = { 
						count = 38772,
						offset = 211460,
					},
					position = { 
						count = 38772,
						offset = 133916,
					},
					tangent = { 
						count = 38772,
						offset = 250232,
					},
					uv0 = { 
						count = 38772,
						offset = 172688,
					},
				},
			},
		},
		vertexAttr = { 
			normal = { 
				count = 28092,
				numComp = 3,
				offset = 54624,
			},
			position = { 
				count = 28800,
				numComp = 3,
				offset = 0,
			},
			tangent = { 
				count = 51200,
				numComp = 4,
				offset = 82716,
			},
			uv0 = { 
				count = 25824,
				numComp = 2,
				offset = 28800,
			},
		},
	}
end