function data()
return { 
		subMeshes = {
			{ 
				indices = { 
					normal = { 
						count = 77556,
						offset = 364200,
					},
					position = { 
						count = 77556,
						offset = 209088,
					},
					tangent = { 
						count = 77556,
						offset = 441756,
					},
					uv0 = { 
						count = 77556,
						offset = 286644,
					},
				},
			},
		},
		vertexAttr = { 
			normal = { 
				count = 38556,
				numComp = 3,
				offset = 94548,
			},
			position = { 
				count = 53940,
				numComp = 3,
				offset = 0,
			},
			tangent = { 
				count = 75984,
				numComp = 4,
				offset = 133104,
			},
			uv0 = { 
				count = 40608,
				numComp = 2,
				offset = 53940,
			},
		},
	}
end