function data()
return { 
		subMeshes = {
			{ 
				indices = { 
					normal = { 
						count = 138552,
						offset = 549840,
					},
					position = { 
						count = 138552,
						offset = 272736,
					},
					tangent = { 
						count = 138552,
						offset = 688392,
					},
					uv0 = { 
						count = 138552,
						offset = 411288,
					},
				},
			},
		},
		vertexAttr = { 
			normal = { 
				count = 40224,
				numComp = 3,
				offset = 120304,
			},
			position = { 
				count = 75456,
				numComp = 3,
				offset = 0,
			},
			tangent = { 
				count = 112208,
				numComp = 4,
				offset = 160528,
			},
			uv0 = { 
				count = 44848,
				numComp = 2,
				offset = 75456,
			},
		},
	}
end