function data()
return { 
		subMeshes = {
			{ 
				indices = { 
					normal = { 
						count = 4488,
						offset = 24320,
					},
					position = { 
						count = 4488,
						offset = 15344,
					},
					tangent = { 
						count = 4488,
						offset = 28808,
					},
					uv0 = { 
						count = 4488,
						offset = 19832,
					},
				},
			},
			{ 
				indices = { 
					normal = { 
						count = 312,
						offset = 33920,
					},
					position = { 
						count = 312,
						offset = 33296,
					},
					tangent = { 
						count = 312,
						offset = 34232,
					},
					uv0 = { 
						count = 312,
						offset = 33608,
					},
				},
			},
		},
		vertexAttr = { 
			normal = { 
				count = 3600,
				numComp = 3,
				offset = 5984,
			},
			position = { 
				count = 2592,
				numComp = 3,
				offset = 0,
			},
			tangent = { 
				count = 5760,
				numComp = 4,
				offset = 9584,
			},
			uv0 = { 
				count = 3392,
				numComp = 2,
				offset = 2592,
			},
		},
	}
end