function data()
return { 
		subMeshes = {
			{ 
				indices = { 
					normal = { 
						count = 4488,
						offset = 24300,
					},
					position = { 
						count = 4488,
						offset = 15324,
					},
					tangent = { 
						count = 4488,
						offset = 28788,
					},
					uv0 = { 
						count = 4488,
						offset = 19812,
					},
				},
			},
			{ 
				indices = { 
					normal = { 
						count = 312,
						offset = 33900,
					},
					position = { 
						count = 312,
						offset = 33276,
					},
					tangent = { 
						count = 312,
						offset = 34212,
					},
					uv0 = { 
						count = 312,
						offset = 33588,
					},
				},
			},
		},
		vertexAttr = { 
			normal = { 
				count = 3612,
				numComp = 3,
				offset = 5984,
			},
			position = { 
				count = 2592,
				numComp = 3,
				offset = 0,
			},
			tangent = { 
				count = 5728,
				numComp = 4,
				offset = 9596,
			},
			uv0 = { 
				count = 3392,
				numComp = 2,
				offset = 2592,
			},
		},
	}
end