function data()
return { 
		subMeshes = {
			{ 
				indices = { 
					normal = { 
						count = 39168,
						offset = 234408,
					},
					position = { 
						count = 39168,
						offset = 156072,
					},
					tangent = { 
						count = 39168,
						offset = 273576,
					},
					uv0 = { 
						count = 39168,
						offset = 195240,
					},
				},
			},
		},
		vertexAttr = { 
			normal = { 
				count = 25032,
				numComp = 3,
				offset = 67872,
			},
			position = { 
				count = 38352,
				numComp = 3,
				offset = 0,
			},
			tangent = { 
				count = 63168,
				numComp = 4,
				offset = 92904,
			},
			uv0 = { 
				count = 29520,
				numComp = 2,
				offset = 38352,
			},
		},
	}
end