function data()
return { 
		subMeshes = {
			{ 
				indices = { 
					normal = { 
						count = 80904,
						offset = 411812,
					},
					position = { 
						count = 80904,
						offset = 250004,
					},
					tangent = { 
						count = 80904,
						offset = 492716,
					},
					uv0 = { 
						count = 80904,
						offset = 330908,
					},
				},
			},
		},
		vertexAttr = { 
			normal = { 
				count = 41952,
				numComp = 3,
				offset = 102788,
			},
			position = { 
				count = 53796,
				numComp = 3,
				offset = 0,
			},
			tangent = { 
				count = 105264,
				numComp = 4,
				offset = 144740,
			},
			uv0 = { 
				count = 48992,
				numComp = 2,
				offset = 53796,
			},
		},
	}
end