function data()
return { 
		subMeshes = {
			{ 
				indices = { 
					normal = { 
						count = 39576,
						offset = 237632,
					},
					position = { 
						count = 39576,
						offset = 158480,
					},
					tangent = { 
						count = 39576,
						offset = 277208,
					},
					uv0 = { 
						count = 39576,
						offset = 198056,
					},
				},
			},
		},
		vertexAttr = { 
			normal = { 
				count = 25152,
				numComp = 3,
				offset = 63840,
			},
			position = { 
				count = 36288,
				numComp = 3,
				offset = 0,
			},
			tangent = { 
				count = 69488,
				numComp = 4,
				offset = 88992,
			},
			uv0 = { 
				count = 27552,
				numComp = 2,
				offset = 36288,
			},
		},
	}
end