function data()
return { 
		subMeshes = {
			{ 
				indices = { 
					normal = { 
						count = 18396,
						offset = 100312,
					},
					position = { 
						count = 18396,
						offset = 63520,
					},
					tangent = { 
						count = 18396,
						offset = 118708,
					},
					uv0 = { 
						count = 18396,
						offset = 81916,
					},
				},
			},
		},
		vertexAttr = { 
			normal = { 
				count = 8856,
				numComp = 3,
				offset = 33416,
			},
			position = { 
				count = 17064,
				numComp = 3,
				offset = 0,
			},
			tangent = { 
				count = 21248,
				numComp = 4,
				offset = 42272,
			},
			uv0 = { 
				count = 16352,
				numComp = 2,
				offset = 17064,
			},
		},
	}
end