function data()
return { 
		subMeshes = {
			{ 
				indices = { 
					normal = { 
						count = 225108,
						offset = 678572,
					},
					position = { 
						count = 225108,
						offset = 228356,
					},
					tangent = { 
						count = 225108,
						offset = 903680,
					},
					uv0 = { 
						count = 225108,
						offset = 453464,
					},
				},
			},
		},
		vertexAttr = { 
			normal = { 
				count = 13284,
				numComp = 3,
				offset = 155168,
			},
			position = { 
				count = 124656,
				numComp = 3,
				offset = 0,
			},
			tangent = { 
				count = 59904,
				numComp = 4,
				offset = 168452,
			},
			uv0 = { 
				count = 30512,
				numComp = 2,
				offset = 124656,
			},
		},
	}
end