function data()
return { 
		subMeshes = {
			{ 
				indices = { 
					normal = { 
						count = 30528,
						offset = 144900,
					},
					position = { 
						count = 30528,
						offset = 83844,
					},
					tangent = { 
						count = 30528,
						offset = 175428,
					},
					uv0 = { 
						count = 30528,
						offset = 114372,
					},
				},
			},
		},
		vertexAttr = { 
			normal = { 
				count = 22416,
				numComp = 3,
				offset = 31588,
			},
			position = { 
				count = 18324,
				numComp = 3,
				offset = 0,
			},
			tangent = { 
				count = 29840,
				numComp = 4,
				offset = 54004,
			},
			uv0 = { 
				count = 13264,
				numComp = 2,
				offset = 18324,
			},
		},
	}
end