function data()
return { 
		subMeshes = {
			{ 
				indices = { 
					normal = { 
						count = 16464,
						offset = 81324,
					},
					position = { 
						count = 16464,
						offset = 48396,
					},
					tangent = { 
						count = 16464,
						offset = 97788,
					},
					uv0 = { 
						count = 16464,
						offset = 64860,
					},
				},
			},
		},
		vertexAttr = { 
			normal = { 
				count = 13476,
				numComp = 3,
				offset = 18120,
			},
			position = { 
				count = 11016,
				numComp = 3,
				offset = 0,
			},
			tangent = { 
				count = 16800,
				numComp = 4,
				offset = 31596,
			},
			uv0 = { 
				count = 7104,
				numComp = 2,
				offset = 11016,
			},
		},
	}
end