function data()
return { 
		subMeshes = {
			{ 
				indices = { 
					normal = { 
						count = 25032,
						offset = 108552,
					},
					position = { 
						count = 25032,
						offset = 58488,
					},
					tangent = { 
						count = 25032,
						offset = 133584,
					},
					uv0 = { 
						count = 25032,
						offset = 83520,
					},
				},
			},
		},
		vertexAttr = { 
			normal = { 
				count = 12744,
				numComp = 3,
				offset = 24112,
			},
			position = { 
				count = 12960,
				numComp = 3,
				offset = 0,
			},
			tangent = { 
				count = 21632,
				numComp = 4,
				offset = 36856,
			},
			uv0 = { 
				count = 11152,
				numComp = 2,
				offset = 12960,
			},
		},
	}
end