function data()
return { 
		subMeshes = {
			{ 
				indices = { 
					normal = { 
						count = 63312,
						offset = 321840,
					},
					position = { 
						count = 63312,
						offset = 195216,
					},
					tangent = { 
						count = 63312,
						offset = 385152,
					},
					uv0 = { 
						count = 63312,
						offset = 258528,
					},
				},
			},
		},
		vertexAttr = { 
			normal = { 
				count = 39180,
				numComp = 3,
				offset = 85252,
			},
			position = { 
				count = 45684,
				numComp = 3,
				offset = 0,
			},
			tangent = { 
				count = 70784,
				numComp = 4,
				offset = 124432,
			},
			uv0 = { 
				count = 39568,
				numComp = 2,
				offset = 45684,
			},
		},
	}
end