function data()
return { 
		subMeshes = {
			{ 
				indices = { 
					normal = { 
						count = 150972,
						offset = 666492,
					},
					position = { 
						count = 150972,
						offset = 364548,
					},
					tangent = { 
						count = 150972,
						offset = 817464,
					},
					uv0 = { 
						count = 150972,
						offset = 515520,
					},
				},
			},
		},
		vertexAttr = { 
			normal = { 
				count = 65340,
				numComp = 3,
				offset = 166536,
			},
			position = { 
				count = 84000,
				numComp = 3,
				offset = 0,
			},
			tangent = { 
				count = 132672,
				numComp = 4,
				offset = 231876,
			},
			uv0 = { 
				count = 82536,
				numComp = 2,
				offset = 84000,
			},
		},
	}
end