function data()
return { 
		subMeshes = {
			{ 
				indices = { 
					normal = { 
						count = 4524,
						offset = 25588,
					},
					position = { 
						count = 4524,
						offset = 16540,
					},
					tangent = { 
						count = 4524,
						offset = 30112,
					},
					uv0 = { 
						count = 4524,
						offset = 21064,
					},
				},
			},
			{ 
				indices = { 
					normal = { 
						count = 312,
						offset = 35260,
					},
					position = { 
						count = 312,
						offset = 34636,
					},
					tangent = { 
						count = 312,
						offset = 35572,
					},
					uv0 = { 
						count = 312,
						offset = 34948,
					},
				},
			},
		},
		vertexAttr = { 
			normal = { 
				count = 3756,
				numComp = 3,
				offset = 6064,
			},
			position = { 
				count = 2616,
				numComp = 3,
				offset = 0,
			},
			tangent = { 
				count = 6720,
				numComp = 4,
				offset = 9820,
			},
			uv0 = { 
				count = 3448,
				numComp = 2,
				offset = 2616,
			},
		},
	}
end