function data()
return { 
		subMeshes = {
			{ 
				indices = { 
					normal = { 
						count = 138384,
						offset = 549436,
					},
					position = { 
						count = 138384,
						offset = 272668,
					},
					tangent = { 
						count = 138384,
						offset = 687820,
					},
					uv0 = { 
						count = 138384,
						offset = 411052,
					},
				},
			},
		},
		vertexAttr = { 
			normal = { 
				count = 40188,
				numComp = 3,
				offset = 120304,
			},
			position = { 
				count = 75456,
				numComp = 3,
				offset = 0,
			},
			tangent = { 
				count = 112176,
				numComp = 4,
				offset = 160492,
			},
			uv0 = { 
				count = 44848,
				numComp = 2,
				offset = 75456,
			},
		},
	}
end